<mxfile host="app.diagrams.net" agent="Mozilla/5.0 (Windows NT 10.0; Win64; x64) AppleWebKit/537.36 (KHTML, like Gecko) Chrome/133.0.0.0 Safari/537.36" version="24.9.0">
  <diagram id="C5RBs43oDa-KdzZeNtuy" name="Page-1">
    <mxGraphModel dx="6538" dy="3127" grid="1" gridSize="10" guides="1" tooltips="1" connect="1" arrows="1" fold="1" page="1" pageScale="1" pageWidth="1169" pageHeight="827" math="0" shadow="0">
      <root>
        <mxCell id="WIyWlLk6GJQsqaUBKTNV-0" />
        <mxCell id="WIyWlLk6GJQsqaUBKTNV-1" parent="WIyWlLk6GJQsqaUBKTNV-0" />
        <mxCell id="iGWFrbJc25Ctp-Jr03vj-0" value="&lt;font style=&quot;font-size: 16px;&quot;&gt;Start&lt;/font&gt;" style="ellipse;whiteSpace=wrap;html=1;" vertex="1" parent="WIyWlLk6GJQsqaUBKTNV-1">
          <mxGeometry x="316" y="-80" width="120" height="40" as="geometry" />
        </mxCell>
        <mxCell id="iGWFrbJc25Ctp-Jr03vj-3" value="&lt;font style=&quot;font-size: 16px;&quot;&gt;User has account?&lt;/font&gt;" style="rhombus;whiteSpace=wrap;html=1;" vertex="1" parent="WIyWlLk6GJQsqaUBKTNV-1">
          <mxGeometry x="315" y="124" width="120" height="80" as="geometry" />
        </mxCell>
        <mxCell id="iGWFrbJc25Ctp-Jr03vj-4" value="" style="endArrow=classic;html=1;rounded=0;exitX=0.5;exitY=1;exitDx=0;exitDy=0;" edge="1" parent="WIyWlLk6GJQsqaUBKTNV-1">
          <mxGeometry width="50" height="50" relative="1" as="geometry">
            <mxPoint x="374.38" y="204" as="sourcePoint" />
            <mxPoint x="374" y="246" as="targetPoint" />
          </mxGeometry>
        </mxCell>
        <mxCell id="iGWFrbJc25Ctp-Jr03vj-9" value="&lt;font style=&quot;font-size: 16px;&quot;&gt;Yes&lt;/font&gt;" style="edgeLabel;html=1;align=center;verticalAlign=middle;resizable=0;points=[];" vertex="1" connectable="0" parent="iGWFrbJc25Ctp-Jr03vj-4">
          <mxGeometry x="-0.2122" y="-5" relative="1" as="geometry">
            <mxPoint as="offset" />
          </mxGeometry>
        </mxCell>
        <mxCell id="iGWFrbJc25Ctp-Jr03vj-5" value="&lt;font style=&quot;font-size: 16px;&quot;&gt;Login&lt;/font&gt;" style="rounded=1;whiteSpace=wrap;html=1;" vertex="1" parent="WIyWlLk6GJQsqaUBKTNV-1">
          <mxGeometry x="330" y="246" width="90" height="30" as="geometry" />
        </mxCell>
        <mxCell id="iGWFrbJc25Ctp-Jr03vj-8" value="&lt;font style=&quot;font-size: 16px;&quot;&gt;Register&lt;/font&gt;" style="rounded=1;whiteSpace=wrap;html=1;" vertex="1" parent="WIyWlLk6GJQsqaUBKTNV-1">
          <mxGeometry x="476" y="149" width="90" height="30" as="geometry" />
        </mxCell>
        <mxCell id="iGWFrbJc25Ctp-Jr03vj-10" value="" style="endArrow=classic;html=1;rounded=0;entryX=0;entryY=0.5;entryDx=0;entryDy=0;" edge="1" parent="WIyWlLk6GJQsqaUBKTNV-1" source="iGWFrbJc25Ctp-Jr03vj-3" target="iGWFrbJc25Ctp-Jr03vj-8">
          <mxGeometry width="50" height="50" relative="1" as="geometry">
            <mxPoint x="275" y="276" as="sourcePoint" />
            <mxPoint x="325" y="226" as="targetPoint" />
          </mxGeometry>
        </mxCell>
        <mxCell id="iGWFrbJc25Ctp-Jr03vj-11" value="&lt;font style=&quot;font-size: 16px;&quot;&gt;No&lt;/font&gt;" style="edgeLabel;html=1;align=center;verticalAlign=middle;resizable=0;points=[];" vertex="1" connectable="0" parent="iGWFrbJc25Ctp-Jr03vj-10">
          <mxGeometry x="-0.4146" relative="1" as="geometry">
            <mxPoint x="-1" as="offset" />
          </mxGeometry>
        </mxCell>
        <mxCell id="iGWFrbJc25Ctp-Jr03vj-12" value="" style="endArrow=classic;html=1;rounded=0;exitX=0.5;exitY=1;exitDx=0;exitDy=0;entryX=1;entryY=0.5;entryDx=0;entryDy=0;" edge="1" parent="WIyWlLk6GJQsqaUBKTNV-1" source="iGWFrbJc25Ctp-Jr03vj-8" target="iGWFrbJc25Ctp-Jr03vj-5">
          <mxGeometry width="50" height="50" relative="1" as="geometry">
            <mxPoint x="275" y="276" as="sourcePoint" />
            <mxPoint x="325" y="226" as="targetPoint" />
            <Array as="points">
              <mxPoint x="521" y="261" />
            </Array>
          </mxGeometry>
        </mxCell>
        <mxCell id="iGWFrbJc25Ctp-Jr03vj-13" value="" style="endArrow=classic;html=1;rounded=0;exitX=0.5;exitY=1;exitDx=0;exitDy=0;entryX=0.5;entryY=0;entryDx=0;entryDy=0;" edge="1" parent="WIyWlLk6GJQsqaUBKTNV-1" source="iGWFrbJc25Ctp-Jr03vj-5" target="iGWFrbJc25Ctp-Jr03vj-14">
          <mxGeometry width="50" height="50" relative="1" as="geometry">
            <mxPoint x="275" y="276" as="sourcePoint" />
            <mxPoint x="375" y="316" as="targetPoint" />
          </mxGeometry>
        </mxCell>
        <mxCell id="iGWFrbJc25Ctp-Jr03vj-14" value="&lt;font style=&quot;font-size: 16px;&quot;&gt;Are you an Admin?&lt;/font&gt;" style="rhombus;whiteSpace=wrap;html=1;" vertex="1" parent="WIyWlLk6GJQsqaUBKTNV-1">
          <mxGeometry x="320" y="312" width="110" height="80" as="geometry" />
        </mxCell>
        <mxCell id="iGWFrbJc25Ctp-Jr03vj-16" value="" style="endArrow=classic;html=1;rounded=0;exitX=0.5;exitY=1;exitDx=0;exitDy=0;" edge="1" parent="WIyWlLk6GJQsqaUBKTNV-1" source="iGWFrbJc25Ctp-Jr03vj-14">
          <mxGeometry width="50" height="50" relative="1" as="geometry">
            <mxPoint x="340" y="526" as="sourcePoint" />
            <mxPoint x="376" y="446" as="targetPoint" />
          </mxGeometry>
        </mxCell>
        <mxCell id="iGWFrbJc25Ctp-Jr03vj-18" value="&lt;font style=&quot;font-size: 16px;&quot;&gt;No&lt;/font&gt;" style="edgeLabel;html=1;align=center;verticalAlign=middle;resizable=0;points=[];" vertex="1" connectable="0" parent="iGWFrbJc25Ctp-Jr03vj-16">
          <mxGeometry x="-0.1667" y="2" relative="1" as="geometry">
            <mxPoint as="offset" />
          </mxGeometry>
        </mxCell>
        <mxCell id="iGWFrbJc25Ctp-Jr03vj-19" value="&lt;font style=&quot;font-size: 16px;&quot;&gt;User Home Page&lt;/font&gt;" style="rounded=1;whiteSpace=wrap;html=1;" vertex="1" parent="WIyWlLk6GJQsqaUBKTNV-1">
          <mxGeometry x="316" y="446" width="120" height="40" as="geometry" />
        </mxCell>
        <mxCell id="iGWFrbJc25Ctp-Jr03vj-23" value="&lt;font style=&quot;font-size: 16px;&quot;&gt;Manage Pets&lt;/font&gt;" style="rounded=1;whiteSpace=wrap;html=1;" vertex="1" parent="WIyWlLk6GJQsqaUBKTNV-1">
          <mxGeometry x="60" y="540" width="120" height="40" as="geometry" />
        </mxCell>
        <mxCell id="iGWFrbJc25Ctp-Jr03vj-25" value="" style="endArrow=classic;html=1;rounded=0;entryX=0.5;entryY=0;entryDx=0;entryDy=0;exitX=0.5;exitY=1;exitDx=0;exitDy=0;" edge="1" parent="WIyWlLk6GJQsqaUBKTNV-1" source="iGWFrbJc25Ctp-Jr03vj-19" target="iGWFrbJc25Ctp-Jr03vj-23">
          <mxGeometry width="50" height="50" relative="1" as="geometry">
            <mxPoint x="380" y="510" as="sourcePoint" />
            <mxPoint x="380" y="460" as="targetPoint" />
            <Array as="points">
              <mxPoint x="376" y="520" />
              <mxPoint x="120" y="520" />
            </Array>
          </mxGeometry>
        </mxCell>
        <mxCell id="iGWFrbJc25Ctp-Jr03vj-26" value="" style="endArrow=classic;html=1;rounded=0;exitX=0.5;exitY=1;exitDx=0;exitDy=0;entryX=0.5;entryY=0;entryDx=0;entryDy=0;" edge="1" parent="WIyWlLk6GJQsqaUBKTNV-1" source="iGWFrbJc25Ctp-Jr03vj-23" target="iGWFrbJc25Ctp-Jr03vj-27">
          <mxGeometry width="50" height="50" relative="1" as="geometry">
            <mxPoint x="330" y="510" as="sourcePoint" />
            <mxPoint x="120" y="620" as="targetPoint" />
          </mxGeometry>
        </mxCell>
        <mxCell id="iGWFrbJc25Ctp-Jr03vj-27" value="&lt;font style=&quot;font-size: 16px;&quot;&gt;Add pets?&lt;/font&gt;" style="rhombus;whiteSpace=wrap;html=1;" vertex="1" parent="WIyWlLk6GJQsqaUBKTNV-1">
          <mxGeometry x="80" y="620" width="80" height="80" as="geometry" />
        </mxCell>
        <mxCell id="iGWFrbJc25Ctp-Jr03vj-28" value="" style="endArrow=classic;html=1;rounded=0;exitX=1;exitY=0.5;exitDx=0;exitDy=0;" edge="1" parent="WIyWlLk6GJQsqaUBKTNV-1" source="iGWFrbJc25Ctp-Jr03vj-27">
          <mxGeometry width="50" height="50" relative="1" as="geometry">
            <mxPoint x="330" y="510" as="sourcePoint" />
            <mxPoint x="220" y="660" as="targetPoint" />
          </mxGeometry>
        </mxCell>
        <mxCell id="iGWFrbJc25Ctp-Jr03vj-29" value="&lt;font style=&quot;font-size: 16px;&quot;&gt;Yes&lt;/font&gt;" style="edgeLabel;html=1;align=center;verticalAlign=middle;resizable=0;points=[];" vertex="1" connectable="0" parent="iGWFrbJc25Ctp-Jr03vj-28">
          <mxGeometry x="-0.2476" y="-2" relative="1" as="geometry">
            <mxPoint as="offset" />
          </mxGeometry>
        </mxCell>
        <mxCell id="iGWFrbJc25Ctp-Jr03vj-30" value="&lt;font style=&quot;font-size: 16px;&quot;&gt;Register Pets&lt;/font&gt;" style="rounded=1;whiteSpace=wrap;html=1;" vertex="1" parent="WIyWlLk6GJQsqaUBKTNV-1">
          <mxGeometry x="202" y="640" width="120" height="40" as="geometry" />
        </mxCell>
        <mxCell id="iGWFrbJc25Ctp-Jr03vj-34" value="&lt;font style=&quot;font-size: 16px;&quot;&gt;View Pets&lt;/font&gt;" style="rounded=1;whiteSpace=wrap;html=1;" vertex="1" parent="WIyWlLk6GJQsqaUBKTNV-1">
          <mxGeometry x="60" y="760" width="120" height="40" as="geometry" />
        </mxCell>
        <mxCell id="iGWFrbJc25Ctp-Jr03vj-35" value="" style="endArrow=classic;html=1;rounded=0;exitX=0.5;exitY=1;exitDx=0;exitDy=0;entryX=0.5;entryY=0;entryDx=0;entryDy=0;" edge="1" parent="WIyWlLk6GJQsqaUBKTNV-1" source="iGWFrbJc25Ctp-Jr03vj-27" target="iGWFrbJc25Ctp-Jr03vj-34">
          <mxGeometry width="50" height="50" relative="1" as="geometry">
            <mxPoint x="230" y="770" as="sourcePoint" />
            <mxPoint x="280" y="720" as="targetPoint" />
          </mxGeometry>
        </mxCell>
        <mxCell id="iGWFrbJc25Ctp-Jr03vj-36" value="&lt;font style=&quot;font-size: 16px;&quot;&gt;No&lt;/font&gt;" style="edgeLabel;html=1;align=center;verticalAlign=middle;resizable=0;points=[];" vertex="1" connectable="0" parent="iGWFrbJc25Ctp-Jr03vj-35">
          <mxGeometry x="-0.0467" y="-1" relative="1" as="geometry">
            <mxPoint as="offset" />
          </mxGeometry>
        </mxCell>
        <mxCell id="iGWFrbJc25Ctp-Jr03vj-37" value="" style="endArrow=classic;html=1;rounded=0;exitX=0;exitY=0.5;exitDx=0;exitDy=0;entryX=0.5;entryY=0;entryDx=0;entryDy=0;" edge="1" parent="WIyWlLk6GJQsqaUBKTNV-1" source="iGWFrbJc25Ctp-Jr03vj-23" target="iGWFrbJc25Ctp-Jr03vj-38">
          <mxGeometry width="50" height="50" relative="1" as="geometry">
            <mxPoint x="230" y="760" as="sourcePoint" />
            <mxPoint x="-70" y="560" as="targetPoint" />
            <Array as="points">
              <mxPoint x="20" y="560" />
            </Array>
          </mxGeometry>
        </mxCell>
        <mxCell id="iGWFrbJc25Ctp-Jr03vj-38" value="&lt;font style=&quot;font-size: 16px;&quot;&gt;Edit Pets?&lt;/font&gt;" style="rhombus;whiteSpace=wrap;html=1;" vertex="1" parent="WIyWlLk6GJQsqaUBKTNV-1">
          <mxGeometry x="-21" y="620" width="80" height="80" as="geometry" />
        </mxCell>
        <mxCell id="iGWFrbJc25Ctp-Jr03vj-39" value="" style="endArrow=classic;html=1;rounded=0;exitX=0.5;exitY=1;exitDx=0;exitDy=0;entryX=1;entryY=0.5;entryDx=0;entryDy=0;" edge="1" parent="WIyWlLk6GJQsqaUBKTNV-1" source="iGWFrbJc25Ctp-Jr03vj-30" target="iGWFrbJc25Ctp-Jr03vj-34">
          <mxGeometry width="50" height="50" relative="1" as="geometry">
            <mxPoint x="230" y="660" as="sourcePoint" />
            <mxPoint x="280" y="610" as="targetPoint" />
            <Array as="points">
              <mxPoint x="262" y="780" />
            </Array>
          </mxGeometry>
        </mxCell>
        <mxCell id="iGWFrbJc25Ctp-Jr03vj-40" value="" style="endArrow=classic;html=1;rounded=0;exitX=0.5;exitY=1;exitDx=0;exitDy=0;entryX=0;entryY=0.5;entryDx=0;entryDy=0;" edge="1" parent="WIyWlLk6GJQsqaUBKTNV-1" source="iGWFrbJc25Ctp-Jr03vj-38" target="iGWFrbJc25Ctp-Jr03vj-34">
          <mxGeometry width="50" height="50" relative="1" as="geometry">
            <mxPoint x="-30" y="710" as="sourcePoint" />
            <mxPoint x="280" y="610" as="targetPoint" />
            <Array as="points">
              <mxPoint x="20" y="780" />
            </Array>
          </mxGeometry>
        </mxCell>
        <mxCell id="iGWFrbJc25Ctp-Jr03vj-41" value="&lt;font style=&quot;font-size: 16px;&quot;&gt;No&lt;/font&gt;" style="edgeLabel;html=1;align=center;verticalAlign=middle;resizable=0;points=[];" vertex="1" connectable="0" parent="iGWFrbJc25Ctp-Jr03vj-40">
          <mxGeometry x="-0.6071" y="-3" relative="1" as="geometry">
            <mxPoint as="offset" />
          </mxGeometry>
        </mxCell>
        <mxCell id="iGWFrbJc25Ctp-Jr03vj-42" value="" style="endArrow=classic;html=1;rounded=0;exitX=0;exitY=0.5;exitDx=0;exitDy=0;entryX=1;entryY=0.5;entryDx=0;entryDy=0;" edge="1" parent="WIyWlLk6GJQsqaUBKTNV-1" source="iGWFrbJc25Ctp-Jr03vj-38" target="iGWFrbJc25Ctp-Jr03vj-43">
          <mxGeometry width="50" height="50" relative="1" as="geometry">
            <mxPoint x="-20" y="780" as="sourcePoint" />
            <mxPoint x="-110" y="660" as="targetPoint" />
          </mxGeometry>
        </mxCell>
        <mxCell id="iGWFrbJc25Ctp-Jr03vj-43" value="&lt;span style=&quot;font-size: 16px;&quot;&gt;Update Pets&lt;/span&gt;" style="rounded=1;whiteSpace=wrap;html=1;" vertex="1" parent="WIyWlLk6GJQsqaUBKTNV-1">
          <mxGeometry x="-162" y="640" width="120" height="40" as="geometry" />
        </mxCell>
        <mxCell id="iGWFrbJc25Ctp-Jr03vj-45" value="" style="endArrow=classic;html=1;rounded=0;exitX=0.5;exitY=1;exitDx=0;exitDy=0;entryX=0;entryY=0.5;entryDx=0;entryDy=0;" edge="1" parent="WIyWlLk6GJQsqaUBKTNV-1" source="iGWFrbJc25Ctp-Jr03vj-43" target="iGWFrbJc25Ctp-Jr03vj-34">
          <mxGeometry width="50" height="50" relative="1" as="geometry">
            <mxPoint x="-20" y="710" as="sourcePoint" />
            <mxPoint x="-30" y="780" as="targetPoint" />
            <Array as="points">
              <mxPoint x="-102" y="780" />
            </Array>
          </mxGeometry>
        </mxCell>
        <mxCell id="iGWFrbJc25Ctp-Jr03vj-48" value="" style="endArrow=classic;html=1;rounded=0;exitX=1;exitY=0.5;exitDx=0;exitDy=0;entryX=0.5;entryY=0;entryDx=0;entryDy=0;" edge="1" parent="WIyWlLk6GJQsqaUBKTNV-1" source="iGWFrbJc25Ctp-Jr03vj-23" target="iGWFrbJc25Ctp-Jr03vj-49">
          <mxGeometry width="50" height="50" relative="1" as="geometry">
            <mxPoint x="-440" y="660" as="sourcePoint" />
            <mxPoint x="370" y="560" as="targetPoint" />
            <Array as="points">
              <mxPoint x="400" y="560" />
            </Array>
          </mxGeometry>
        </mxCell>
        <mxCell id="iGWFrbJc25Ctp-Jr03vj-49" value="&lt;font style=&quot;font-size: 16px;&quot;&gt;Delete Pets?&lt;/font&gt;" style="rhombus;whiteSpace=wrap;html=1;" vertex="1" parent="WIyWlLk6GJQsqaUBKTNV-1">
          <mxGeometry x="360" y="620" width="80" height="80" as="geometry" />
        </mxCell>
        <mxCell id="iGWFrbJc25Ctp-Jr03vj-50" value="" style="endArrow=classic;html=1;rounded=0;exitX=0.5;exitY=1;exitDx=0;exitDy=0;entryX=1;entryY=0.5;entryDx=0;entryDy=0;" edge="1" parent="WIyWlLk6GJQsqaUBKTNV-1" source="iGWFrbJc25Ctp-Jr03vj-49" target="iGWFrbJc25Ctp-Jr03vj-34">
          <mxGeometry width="50" height="50" relative="1" as="geometry">
            <mxPoint x="-290" y="520" as="sourcePoint" />
            <mxPoint x="-240" y="470" as="targetPoint" />
            <Array as="points">
              <mxPoint x="400" y="780" />
            </Array>
          </mxGeometry>
        </mxCell>
        <mxCell id="iGWFrbJc25Ctp-Jr03vj-51" value="&lt;font style=&quot;font-size: 16px;&quot;&gt;No&lt;/font&gt;" style="edgeLabel;html=1;align=center;verticalAlign=middle;resizable=0;points=[];" vertex="1" connectable="0" parent="iGWFrbJc25Ctp-Jr03vj-50">
          <mxGeometry x="-0.8284" y="3" relative="1" as="geometry">
            <mxPoint as="offset" />
          </mxGeometry>
        </mxCell>
        <mxCell id="iGWFrbJc25Ctp-Jr03vj-52" value="&lt;font style=&quot;font-size: 16px;&quot;&gt;Delete Pets&lt;/font&gt;" style="rounded=1;whiteSpace=wrap;html=1;" vertex="1" parent="WIyWlLk6GJQsqaUBKTNV-1">
          <mxGeometry x="476" y="640" width="120" height="40" as="geometry" />
        </mxCell>
        <mxCell id="iGWFrbJc25Ctp-Jr03vj-53" value="" style="endArrow=classic;html=1;rounded=0;exitX=1;exitY=0.5;exitDx=0;exitDy=0;entryX=0;entryY=0.5;entryDx=0;entryDy=0;" edge="1" parent="WIyWlLk6GJQsqaUBKTNV-1" source="iGWFrbJc25Ctp-Jr03vj-49" target="iGWFrbJc25Ctp-Jr03vj-52">
          <mxGeometry width="50" height="50" relative="1" as="geometry">
            <mxPoint x="580" y="450" as="sourcePoint" />
            <mxPoint x="630" y="400" as="targetPoint" />
          </mxGeometry>
        </mxCell>
        <mxCell id="iGWFrbJc25Ctp-Jr03vj-54" value="&lt;font style=&quot;font-size: 16px;&quot;&gt;Yes&lt;/font&gt;" style="edgeLabel;html=1;align=center;verticalAlign=middle;resizable=0;points=[];" vertex="1" connectable="0" parent="iGWFrbJc25Ctp-Jr03vj-53">
          <mxGeometry x="-0.3" y="1" relative="1" as="geometry">
            <mxPoint as="offset" />
          </mxGeometry>
        </mxCell>
        <mxCell id="iGWFrbJc25Ctp-Jr03vj-55" value="" style="endArrow=classic;html=1;rounded=0;exitX=0.5;exitY=1;exitDx=0;exitDy=0;entryX=1;entryY=0.5;entryDx=0;entryDy=0;" edge="1" parent="WIyWlLk6GJQsqaUBKTNV-1" source="iGWFrbJc25Ctp-Jr03vj-52" target="iGWFrbJc25Ctp-Jr03vj-34">
          <mxGeometry width="50" height="50" relative="1" as="geometry">
            <mxPoint x="390" y="580" as="sourcePoint" />
            <mxPoint x="440" y="530" as="targetPoint" />
            <Array as="points">
              <mxPoint x="536" y="780" />
            </Array>
          </mxGeometry>
        </mxCell>
        <mxCell id="iGWFrbJc25Ctp-Jr03vj-57" value="&lt;font style=&quot;font-size: 16px;&quot;&gt;Info Page&lt;/font&gt;" style="rounded=1;whiteSpace=wrap;html=1;" vertex="1" parent="WIyWlLk6GJQsqaUBKTNV-1">
          <mxGeometry x="650" y="540" width="120" height="40" as="geometry" />
        </mxCell>
        <mxCell id="iGWFrbJc25Ctp-Jr03vj-58" value="" style="endArrow=classic;html=1;rounded=0;entryX=0.5;entryY=0;entryDx=0;entryDy=0;exitX=0.5;exitY=1;exitDx=0;exitDy=0;" edge="1" parent="WIyWlLk6GJQsqaUBKTNV-1" source="iGWFrbJc25Ctp-Jr03vj-19" target="iGWFrbJc25Ctp-Jr03vj-57">
          <mxGeometry width="50" height="50" relative="1" as="geometry">
            <mxPoint x="450" y="470" as="sourcePoint" />
            <mxPoint x="500" y="420" as="targetPoint" />
            <Array as="points">
              <mxPoint x="376" y="520" />
              <mxPoint x="530" y="520" />
              <mxPoint x="710" y="520" />
            </Array>
          </mxGeometry>
        </mxCell>
        <mxCell id="iGWFrbJc25Ctp-Jr03vj-60" value="&lt;span style=&quot;font-size: 16px;&quot;&gt;End&lt;/span&gt;" style="ellipse;whiteSpace=wrap;html=1;" vertex="1" parent="WIyWlLk6GJQsqaUBKTNV-1">
          <mxGeometry x="240" y="950" width="120" height="40" as="geometry" />
        </mxCell>
        <mxCell id="iGWFrbJc25Ctp-Jr03vj-61" value="" style="endArrow=classic;html=1;rounded=0;exitX=0.5;exitY=1;exitDx=0;exitDy=0;entryX=0;entryY=0.5;entryDx=0;entryDy=0;" edge="1" parent="WIyWlLk6GJQsqaUBKTNV-1" source="iGWFrbJc25Ctp-Jr03vj-34" target="iGWFrbJc25Ctp-Jr03vj-60">
          <mxGeometry width="50" height="50" relative="1" as="geometry">
            <mxPoint x="340" y="750" as="sourcePoint" />
            <mxPoint x="390" y="700" as="targetPoint" />
            <Array as="points">
              <mxPoint x="120" y="970" />
            </Array>
          </mxGeometry>
        </mxCell>
        <mxCell id="iGWFrbJc25Ctp-Jr03vj-62" value="&lt;font style=&quot;font-size: 16px;&quot;&gt;View About Us&lt;/font&gt;" style="rounded=1;whiteSpace=wrap;html=1;" vertex="1" parent="WIyWlLk6GJQsqaUBKTNV-1">
          <mxGeometry x="650" y="610" width="120" height="40" as="geometry" />
        </mxCell>
        <mxCell id="iGWFrbJc25Ctp-Jr03vj-63" value="" style="endArrow=classic;html=1;rounded=0;exitX=0.5;exitY=1;exitDx=0;exitDy=0;entryX=0.5;entryY=0;entryDx=0;entryDy=0;" edge="1" parent="WIyWlLk6GJQsqaUBKTNV-1" source="iGWFrbJc25Ctp-Jr03vj-57" target="iGWFrbJc25Ctp-Jr03vj-62">
          <mxGeometry width="50" height="50" relative="1" as="geometry">
            <mxPoint x="700" y="590" as="sourcePoint" />
            <mxPoint x="390" y="700" as="targetPoint" />
          </mxGeometry>
        </mxCell>
        <mxCell id="iGWFrbJc25Ctp-Jr03vj-65" value="&lt;font style=&quot;font-size: 16px;&quot;&gt;Send Feedback?&lt;/font&gt;" style="rhombus;whiteSpace=wrap;html=1;" vertex="1" parent="WIyWlLk6GJQsqaUBKTNV-1">
          <mxGeometry x="660" y="690" width="100" height="90" as="geometry" />
        </mxCell>
        <mxCell id="iGWFrbJc25Ctp-Jr03vj-66" value="" style="endArrow=classic;html=1;rounded=0;exitX=0.5;exitY=1;exitDx=0;exitDy=0;" edge="1" parent="WIyWlLk6GJQsqaUBKTNV-1" source="iGWFrbJc25Ctp-Jr03vj-62" target="iGWFrbJc25Ctp-Jr03vj-65">
          <mxGeometry width="50" height="50" relative="1" as="geometry">
            <mxPoint x="440" y="740" as="sourcePoint" />
            <mxPoint x="490" y="690" as="targetPoint" />
          </mxGeometry>
        </mxCell>
        <mxCell id="iGWFrbJc25Ctp-Jr03vj-69" value="&lt;span style=&quot;font-size: 16px;&quot;&gt;Send feedback&lt;/span&gt;" style="rounded=1;whiteSpace=wrap;html=1;" vertex="1" parent="WIyWlLk6GJQsqaUBKTNV-1">
          <mxGeometry x="650" y="827" width="120" height="40" as="geometry" />
        </mxCell>
        <mxCell id="iGWFrbJc25Ctp-Jr03vj-70" value="" style="endArrow=classic;html=1;rounded=0;exitX=0.5;exitY=1;exitDx=0;exitDy=0;" edge="1" parent="WIyWlLk6GJQsqaUBKTNV-1" source="iGWFrbJc25Ctp-Jr03vj-65" target="iGWFrbJc25Ctp-Jr03vj-69">
          <mxGeometry width="50" height="50" relative="1" as="geometry">
            <mxPoint x="440" y="740" as="sourcePoint" />
            <mxPoint x="490" y="690" as="targetPoint" />
          </mxGeometry>
        </mxCell>
        <mxCell id="iGWFrbJc25Ctp-Jr03vj-71" value="&lt;font style=&quot;font-size: 16px;&quot;&gt;Yes&lt;/font&gt;" style="edgeLabel;html=1;align=center;verticalAlign=middle;resizable=0;points=[];" vertex="1" connectable="0" parent="iGWFrbJc25Ctp-Jr03vj-70">
          <mxGeometry x="-0.2471" y="-1" relative="1" as="geometry">
            <mxPoint as="offset" />
          </mxGeometry>
        </mxCell>
        <mxCell id="iGWFrbJc25Ctp-Jr03vj-75" value="" style="endArrow=classic;html=1;rounded=0;exitX=0.5;exitY=1;exitDx=0;exitDy=0;entryX=1;entryY=0.5;entryDx=0;entryDy=0;" edge="1" parent="WIyWlLk6GJQsqaUBKTNV-1" source="iGWFrbJc25Ctp-Jr03vj-69" target="iGWFrbJc25Ctp-Jr03vj-60">
          <mxGeometry width="50" height="50" relative="1" as="geometry">
            <mxPoint x="440" y="730" as="sourcePoint" />
            <mxPoint x="490" y="680" as="targetPoint" />
            <Array as="points">
              <mxPoint x="710" y="970" />
            </Array>
          </mxGeometry>
        </mxCell>
        <mxCell id="iGWFrbJc25Ctp-Jr03vj-76" value="&lt;span style=&quot;font-size: 16px;&quot;&gt;Profile Page&lt;/span&gt;" style="rounded=1;whiteSpace=wrap;html=1;" vertex="1" parent="WIyWlLk6GJQsqaUBKTNV-1">
          <mxGeometry x="920" y="540" width="120" height="40" as="geometry" />
        </mxCell>
        <mxCell id="iGWFrbJc25Ctp-Jr03vj-78" value="" style="endArrow=classic;html=1;rounded=0;exitX=0.5;exitY=1;exitDx=0;exitDy=0;entryX=0.5;entryY=0;entryDx=0;entryDy=0;" edge="1" parent="WIyWlLk6GJQsqaUBKTNV-1" source="iGWFrbJc25Ctp-Jr03vj-19" target="iGWFrbJc25Ctp-Jr03vj-76">
          <mxGeometry width="50" height="50" relative="1" as="geometry">
            <mxPoint x="240" y="810" as="sourcePoint" />
            <mxPoint x="290" y="760" as="targetPoint" />
            <Array as="points">
              <mxPoint x="376" y="520" />
              <mxPoint x="690" y="520" />
              <mxPoint x="980" y="520" />
            </Array>
          </mxGeometry>
        </mxCell>
        <mxCell id="iGWFrbJc25Ctp-Jr03vj-79" value="&lt;font style=&quot;font-size: 16px;&quot;&gt;View Profile&lt;/font&gt;" style="rounded=1;whiteSpace=wrap;html=1;" vertex="1" parent="WIyWlLk6GJQsqaUBKTNV-1">
          <mxGeometry x="920" y="610" width="120" height="40" as="geometry" />
        </mxCell>
        <mxCell id="iGWFrbJc25Ctp-Jr03vj-80" value="" style="endArrow=classic;html=1;rounded=0;exitX=0.5;exitY=1;exitDx=0;exitDy=0;entryX=0.5;entryY=0;entryDx=0;entryDy=0;" edge="1" parent="WIyWlLk6GJQsqaUBKTNV-1" source="iGWFrbJc25Ctp-Jr03vj-76" target="iGWFrbJc25Ctp-Jr03vj-79">
          <mxGeometry width="50" height="50" relative="1" as="geometry">
            <mxPoint x="270" y="800" as="sourcePoint" />
            <mxPoint x="320" y="750" as="targetPoint" />
          </mxGeometry>
        </mxCell>
        <mxCell id="iGWFrbJc25Ctp-Jr03vj-81" value="&lt;font style=&quot;font-size: 16px;&quot;&gt;Edit Profile?&lt;/font&gt;" style="rhombus;whiteSpace=wrap;html=1;" vertex="1" parent="WIyWlLk6GJQsqaUBKTNV-1">
          <mxGeometry x="930" y="680" width="100" height="90" as="geometry" />
        </mxCell>
        <mxCell id="iGWFrbJc25Ctp-Jr03vj-82" value="" style="endArrow=classic;html=1;rounded=0;exitX=1;exitY=0.5;exitDx=0;exitDy=0;entryX=1;entryY=0.5;entryDx=0;entryDy=0;" edge="1" parent="WIyWlLk6GJQsqaUBKTNV-1" source="iGWFrbJc25Ctp-Jr03vj-65" target="iGWFrbJc25Ctp-Jr03vj-60">
          <mxGeometry width="50" height="50" relative="1" as="geometry">
            <mxPoint x="610" y="760" as="sourcePoint" />
            <mxPoint x="660" y="710" as="targetPoint" />
            <Array as="points">
              <mxPoint x="840" y="735" />
              <mxPoint x="840" y="970" />
              <mxPoint x="670" y="970" />
            </Array>
          </mxGeometry>
        </mxCell>
        <mxCell id="iGWFrbJc25Ctp-Jr03vj-84" value="&lt;font style=&quot;font-size: 16px;&quot;&gt;No&lt;/font&gt;" style="edgeLabel;html=1;align=center;verticalAlign=middle;resizable=0;points=[];" vertex="1" connectable="0" parent="iGWFrbJc25Ctp-Jr03vj-82">
          <mxGeometry x="-0.8738" y="-3" relative="1" as="geometry">
            <mxPoint as="offset" />
          </mxGeometry>
        </mxCell>
        <mxCell id="iGWFrbJc25Ctp-Jr03vj-85" value="" style="endArrow=classic;html=1;rounded=0;exitX=0.5;exitY=1;exitDx=0;exitDy=0;" edge="1" parent="WIyWlLk6GJQsqaUBKTNV-1" source="iGWFrbJc25Ctp-Jr03vj-79" target="iGWFrbJc25Ctp-Jr03vj-81">
          <mxGeometry width="50" height="50" relative="1" as="geometry">
            <mxPoint x="640" y="760" as="sourcePoint" />
            <mxPoint x="690" y="710" as="targetPoint" />
          </mxGeometry>
        </mxCell>
        <mxCell id="iGWFrbJc25Ctp-Jr03vj-86" value="&lt;span style=&quot;font-size: 16px;&quot;&gt;Update Profile&lt;/span&gt;" style="rounded=1;whiteSpace=wrap;html=1;" vertex="1" parent="WIyWlLk6GJQsqaUBKTNV-1">
          <mxGeometry x="920" y="816" width="120" height="40" as="geometry" />
        </mxCell>
        <mxCell id="iGWFrbJc25Ctp-Jr03vj-89" style="edgeStyle=orthogonalEdgeStyle;rounded=0;orthogonalLoop=1;jettySize=auto;html=1;exitX=0.5;exitY=1;exitDx=0;exitDy=0;" edge="1" parent="WIyWlLk6GJQsqaUBKTNV-1" source="iGWFrbJc25Ctp-Jr03vj-86" target="iGWFrbJc25Ctp-Jr03vj-86">
          <mxGeometry relative="1" as="geometry" />
        </mxCell>
        <mxCell id="iGWFrbJc25Ctp-Jr03vj-90" value="" style="endArrow=classic;html=1;rounded=0;entryX=0.5;entryY=0;entryDx=0;entryDy=0;exitX=0.5;exitY=1;exitDx=0;exitDy=0;" edge="1" parent="WIyWlLk6GJQsqaUBKTNV-1" source="iGWFrbJc25Ctp-Jr03vj-81" target="iGWFrbJc25Ctp-Jr03vj-86">
          <mxGeometry width="50" height="50" relative="1" as="geometry">
            <mxPoint x="640" y="760" as="sourcePoint" />
            <mxPoint x="690" y="710" as="targetPoint" />
          </mxGeometry>
        </mxCell>
        <mxCell id="iGWFrbJc25Ctp-Jr03vj-91" value="&lt;font style=&quot;font-size: 16px;&quot;&gt;Yes&lt;/font&gt;" style="edgeLabel;html=1;align=center;verticalAlign=middle;resizable=0;points=[];" vertex="1" connectable="0" parent="iGWFrbJc25Ctp-Jr03vj-90">
          <mxGeometry x="-0.0186" y="4" relative="1" as="geometry">
            <mxPoint as="offset" />
          </mxGeometry>
        </mxCell>
        <mxCell id="iGWFrbJc25Ctp-Jr03vj-92" value="" style="endArrow=classic;html=1;rounded=0;exitX=0.5;exitY=1;exitDx=0;exitDy=0;entryX=1;entryY=0.5;entryDx=0;entryDy=0;" edge="1" parent="WIyWlLk6GJQsqaUBKTNV-1" source="iGWFrbJc25Ctp-Jr03vj-86" target="iGWFrbJc25Ctp-Jr03vj-60">
          <mxGeometry width="50" height="50" relative="1" as="geometry">
            <mxPoint x="500" y="690" as="sourcePoint" />
            <mxPoint x="550" y="640" as="targetPoint" />
            <Array as="points">
              <mxPoint x="980" y="970" />
            </Array>
          </mxGeometry>
        </mxCell>
        <mxCell id="iGWFrbJc25Ctp-Jr03vj-93" value="" style="endArrow=classic;html=1;rounded=0;exitX=1;exitY=0.5;exitDx=0;exitDy=0;entryX=1;entryY=0.5;entryDx=0;entryDy=0;" edge="1" parent="WIyWlLk6GJQsqaUBKTNV-1" source="iGWFrbJc25Ctp-Jr03vj-81" target="iGWFrbJc25Ctp-Jr03vj-60">
          <mxGeometry width="50" height="50" relative="1" as="geometry">
            <mxPoint x="380" y="950" as="sourcePoint" />
            <mxPoint x="430" y="900" as="targetPoint" />
            <Array as="points">
              <mxPoint x="1090" y="725" />
              <mxPoint x="1090" y="970" />
            </Array>
          </mxGeometry>
        </mxCell>
        <mxCell id="iGWFrbJc25Ctp-Jr03vj-94" value="&lt;font style=&quot;font-size: 16px;&quot;&gt;No&lt;/font&gt;" style="edgeLabel;html=1;align=center;verticalAlign=middle;resizable=0;points=[];" vertex="1" connectable="0" parent="iGWFrbJc25Ctp-Jr03vj-93">
          <mxGeometry x="-0.9291" y="3" relative="1" as="geometry">
            <mxPoint as="offset" />
          </mxGeometry>
        </mxCell>
        <mxCell id="iGWFrbJc25Ctp-Jr03vj-96" value="&lt;span style=&quot;font-size: 16px;&quot;&gt;Use Chatbot?&lt;/span&gt;" style="rhombus;whiteSpace=wrap;html=1;" vertex="1" parent="WIyWlLk6GJQsqaUBKTNV-1">
          <mxGeometry x="316" y="-10" width="120" height="80" as="geometry" />
        </mxCell>
        <mxCell id="iGWFrbJc25Ctp-Jr03vj-97" value="" style="endArrow=classic;html=1;rounded=0;exitX=0.5;exitY=1;exitDx=0;exitDy=0;" edge="1" parent="WIyWlLk6GJQsqaUBKTNV-1" source="iGWFrbJc25Ctp-Jr03vj-0" target="iGWFrbJc25Ctp-Jr03vj-96">
          <mxGeometry width="50" height="50" relative="1" as="geometry">
            <mxPoint x="140" y="60" as="sourcePoint" />
            <mxPoint x="190" y="10" as="targetPoint" />
          </mxGeometry>
        </mxCell>
        <mxCell id="iGWFrbJc25Ctp-Jr03vj-98" value="" style="endArrow=classic;html=1;rounded=0;exitX=0.5;exitY=1;exitDx=0;exitDy=0;entryX=0.5;entryY=0;entryDx=0;entryDy=0;" edge="1" parent="WIyWlLk6GJQsqaUBKTNV-1" source="iGWFrbJc25Ctp-Jr03vj-96" target="iGWFrbJc25Ctp-Jr03vj-3">
          <mxGeometry width="50" height="50" relative="1" as="geometry">
            <mxPoint x="40" y="60" as="sourcePoint" />
            <mxPoint x="90" y="10" as="targetPoint" />
          </mxGeometry>
        </mxCell>
        <mxCell id="iGWFrbJc25Ctp-Jr03vj-99" value="&lt;font style=&quot;font-size: 16px;&quot;&gt;No&lt;/font&gt;" style="edgeLabel;html=1;align=center;verticalAlign=middle;resizable=0;points=[];" vertex="1" connectable="0" parent="iGWFrbJc25Ctp-Jr03vj-98">
          <mxGeometry x="-0.1215" y="-1" relative="1" as="geometry">
            <mxPoint as="offset" />
          </mxGeometry>
        </mxCell>
        <mxCell id="iGWFrbJc25Ctp-Jr03vj-100" value="" style="endArrow=classic;html=1;rounded=0;exitX=1;exitY=0.5;exitDx=0;exitDy=0;" edge="1" parent="WIyWlLk6GJQsqaUBKTNV-1" source="iGWFrbJc25Ctp-Jr03vj-96">
          <mxGeometry width="50" height="50" relative="1" as="geometry">
            <mxPoint x="-70" y="-130" as="sourcePoint" />
            <mxPoint x="530" y="30" as="targetPoint" />
          </mxGeometry>
        </mxCell>
        <mxCell id="iGWFrbJc25Ctp-Jr03vj-101" value="&lt;font style=&quot;font-size: 16px;&quot;&gt;Yes&lt;/font&gt;" style="edgeLabel;html=1;align=center;verticalAlign=middle;resizable=0;points=[];" vertex="1" connectable="0" parent="iGWFrbJc25Ctp-Jr03vj-100">
          <mxGeometry x="-0.1917" y="-2" relative="1" as="geometry">
            <mxPoint as="offset" />
          </mxGeometry>
        </mxCell>
        <mxCell id="iGWFrbJc25Ctp-Jr03vj-102" value="&lt;font style=&quot;font-size: 16px;&quot;&gt;Start converstion with Chatbot&lt;/font&gt;" style="rounded=1;whiteSpace=wrap;html=1;" vertex="1" parent="WIyWlLk6GJQsqaUBKTNV-1">
          <mxGeometry x="530" y="10" width="170" height="40" as="geometry" />
        </mxCell>
        <mxCell id="iGWFrbJc25Ctp-Jr03vj-103" value="" style="endArrow=classic;html=1;rounded=0;exitX=1;exitY=0.5;exitDx=0;exitDy=0;entryX=1;entryY=0.5;entryDx=0;entryDy=0;" edge="1" parent="WIyWlLk6GJQsqaUBKTNV-1" source="iGWFrbJc25Ctp-Jr03vj-102" target="iGWFrbJc25Ctp-Jr03vj-60">
          <mxGeometry width="50" height="50" relative="1" as="geometry">
            <mxPoint x="130" y="-210" as="sourcePoint" />
            <mxPoint x="478" y="970" as="targetPoint" />
            <Array as="points">
              <mxPoint x="1150" y="30" />
              <mxPoint x="1150" y="970" />
            </Array>
          </mxGeometry>
        </mxCell>
        <mxCell id="iGWFrbJc25Ctp-Jr03vj-104" value="&lt;span style=&quot;font-size: 16px;&quot;&gt;Chatbot&lt;/span&gt;" style="rounded=1;whiteSpace=wrap;html=1;" vertex="1" parent="WIyWlLk6GJQsqaUBKTNV-1">
          <mxGeometry x="-340" y="540" width="120" height="40" as="geometry" />
        </mxCell>
        <mxCell id="iGWFrbJc25Ctp-Jr03vj-105" value="" style="endArrow=classic;html=1;rounded=0;exitX=0.5;exitY=1;exitDx=0;exitDy=0;entryX=0.416;entryY=0.043;entryDx=0;entryDy=0;entryPerimeter=0;" edge="1" parent="WIyWlLk6GJQsqaUBKTNV-1" source="iGWFrbJc25Ctp-Jr03vj-19" target="iGWFrbJc25Ctp-Jr03vj-104">
          <mxGeometry width="50" height="50" relative="1" as="geometry">
            <mxPoint x="80" y="670" as="sourcePoint" />
            <mxPoint x="120" y="490" as="targetPoint" />
            <Array as="points">
              <mxPoint x="376" y="520" />
              <mxPoint x="40" y="520" />
              <mxPoint x="-290" y="520" />
            </Array>
          </mxGeometry>
        </mxCell>
        <mxCell id="iGWFrbJc25Ctp-Jr03vj-106" value="&lt;span style=&quot;font-size: 16px;&quot;&gt;Use Chatbot?&lt;/span&gt;" style="rhombus;whiteSpace=wrap;html=1;" vertex="1" parent="WIyWlLk6GJQsqaUBKTNV-1">
          <mxGeometry x="-340" y="620" width="120" height="80" as="geometry" />
        </mxCell>
        <mxCell id="iGWFrbJc25Ctp-Jr03vj-107" value="" style="endArrow=classic;html=1;rounded=0;exitX=0.5;exitY=1;exitDx=0;exitDy=0;" edge="1" parent="WIyWlLk6GJQsqaUBKTNV-1" source="iGWFrbJc25Ctp-Jr03vj-104" target="iGWFrbJc25Ctp-Jr03vj-106">
          <mxGeometry width="50" height="50" relative="1" as="geometry">
            <mxPoint x="-120" y="680" as="sourcePoint" />
            <mxPoint x="-70" y="630" as="targetPoint" />
          </mxGeometry>
        </mxCell>
        <mxCell id="iGWFrbJc25Ctp-Jr03vj-108" value="" style="endArrow=classic;html=1;rounded=0;exitX=0.5;exitY=1;exitDx=0;exitDy=0;entryX=0.5;entryY=0;entryDx=0;entryDy=0;" edge="1" parent="WIyWlLk6GJQsqaUBKTNV-1" source="iGWFrbJc25Ctp-Jr03vj-106" target="iGWFrbJc25Ctp-Jr03vj-109">
          <mxGeometry width="50" height="50" relative="1" as="geometry">
            <mxPoint x="-40" y="550" as="sourcePoint" />
            <mxPoint x="10" y="500" as="targetPoint" />
          </mxGeometry>
        </mxCell>
        <mxCell id="iGWFrbJc25Ctp-Jr03vj-112" value="&lt;font style=&quot;font-size: 16px;&quot;&gt;Yes&lt;/font&gt;" style="edgeLabel;html=1;align=center;verticalAlign=middle;resizable=0;points=[];" vertex="1" connectable="0" parent="iGWFrbJc25Ctp-Jr03vj-108">
          <mxGeometry x="-0.25" y="3" relative="1" as="geometry">
            <mxPoint as="offset" />
          </mxGeometry>
        </mxCell>
        <mxCell id="iGWFrbJc25Ctp-Jr03vj-109" value="&lt;font style=&quot;font-size: 16px;&quot;&gt;Start converstion with Chatbot&lt;/font&gt;" style="rounded=1;whiteSpace=wrap;html=1;" vertex="1" parent="WIyWlLk6GJQsqaUBKTNV-1">
          <mxGeometry x="-365" y="740" width="170" height="40" as="geometry" />
        </mxCell>
        <mxCell id="iGWFrbJc25Ctp-Jr03vj-111" value="" style="endArrow=classic;html=1;rounded=0;exitX=0.5;exitY=1;exitDx=0;exitDy=0;entryX=0;entryY=0.5;entryDx=0;entryDy=0;" edge="1" parent="WIyWlLk6GJQsqaUBKTNV-1" source="iGWFrbJc25Ctp-Jr03vj-109" target="iGWFrbJc25Ctp-Jr03vj-60">
          <mxGeometry width="50" height="50" relative="1" as="geometry">
            <mxPoint x="-140" y="960" as="sourcePoint" />
            <mxPoint x="-90" y="910" as="targetPoint" />
            <Array as="points">
              <mxPoint x="-280" y="970" />
            </Array>
          </mxGeometry>
        </mxCell>
        <mxCell id="iGWFrbJc25Ctp-Jr03vj-113" value="" style="endArrow=classic;html=1;rounded=0;exitX=0;exitY=0.5;exitDx=0;exitDy=0;entryX=0;entryY=0.5;entryDx=0;entryDy=0;" edge="1" parent="WIyWlLk6GJQsqaUBKTNV-1" source="iGWFrbJc25Ctp-Jr03vj-106" target="iGWFrbJc25Ctp-Jr03vj-60">
          <mxGeometry width="50" height="50" relative="1" as="geometry">
            <mxPoint x="-540" y="880" as="sourcePoint" />
            <mxPoint x="-400" y="980" as="targetPoint" />
            <Array as="points">
              <mxPoint x="-420" y="660" />
              <mxPoint x="-420" y="970" />
            </Array>
          </mxGeometry>
        </mxCell>
        <mxCell id="iGWFrbJc25Ctp-Jr03vj-114" value="&lt;font style=&quot;font-size: 16px;&quot;&gt;No&lt;/font&gt;" style="edgeLabel;html=1;align=center;verticalAlign=middle;resizable=0;points=[];" vertex="1" connectable="0" parent="iGWFrbJc25Ctp-Jr03vj-113">
          <mxGeometry x="-0.8904" y="1" relative="1" as="geometry">
            <mxPoint as="offset" />
          </mxGeometry>
        </mxCell>
        <mxCell id="iGWFrbJc25Ctp-Jr03vj-116" value="&lt;font style=&quot;font-size: 16px;&quot;&gt;Admin Home Page&lt;/font&gt;" style="rounded=1;whiteSpace=wrap;html=1;" vertex="1" parent="WIyWlLk6GJQsqaUBKTNV-1">
          <mxGeometry x="-1140" y="446" width="120" height="40" as="geometry" />
        </mxCell>
        <mxCell id="iGWFrbJc25Ctp-Jr03vj-118" value="" style="endArrow=classic;html=1;rounded=0;entryX=0.5;entryY=0;entryDx=0;entryDy=0;" edge="1" parent="WIyWlLk6GJQsqaUBKTNV-1" source="iGWFrbJc25Ctp-Jr03vj-14" target="iGWFrbJc25Ctp-Jr03vj-116">
          <mxGeometry width="50" height="50" relative="1" as="geometry">
            <mxPoint x="310" y="352" as="sourcePoint" />
            <mxPoint x="-370" y="470" as="targetPoint" />
            <Array as="points">
              <mxPoint x="-1080" y="360" />
            </Array>
          </mxGeometry>
        </mxCell>
        <mxCell id="iGWFrbJc25Ctp-Jr03vj-119" value="&lt;font style=&quot;font-size: 16px;&quot;&gt;Yes&lt;/font&gt;" style="edgeLabel;html=1;align=center;verticalAlign=middle;resizable=0;points=[];" vertex="1" connectable="0" parent="iGWFrbJc25Ctp-Jr03vj-118">
          <mxGeometry x="-0.1093" y="4" relative="1" as="geometry">
            <mxPoint as="offset" />
          </mxGeometry>
        </mxCell>
        <mxCell id="iGWFrbJc25Ctp-Jr03vj-120" value="" style="endArrow=classic;html=1;rounded=0;exitX=0.5;exitY=1;exitDx=0;exitDy=0;entryX=0.5;entryY=0;entryDx=0;entryDy=0;" edge="1" parent="WIyWlLk6GJQsqaUBKTNV-1" source="iGWFrbJc25Ctp-Jr03vj-116" target="iGWFrbJc25Ctp-Jr03vj-121">
          <mxGeometry width="50" height="50" relative="1" as="geometry">
            <mxPoint x="-670" y="510" as="sourcePoint" />
            <mxPoint x="-1579.4117647058824" y="520" as="targetPoint" />
            <Array as="points">
              <mxPoint x="-1080" y="520" />
              <mxPoint x="-1462" y="520" />
            </Array>
          </mxGeometry>
        </mxCell>
        <mxCell id="iGWFrbJc25Ctp-Jr03vj-121" value="&lt;span style=&quot;font-size: 16px;&quot;&gt;View User Analytics&lt;/span&gt;" style="rounded=1;whiteSpace=wrap;html=1;" vertex="1" parent="WIyWlLk6GJQsqaUBKTNV-1">
          <mxGeometry x="-1522" y="540" width="120" height="40" as="geometry" />
        </mxCell>
        <mxCell id="iGWFrbJc25Ctp-Jr03vj-125" value="&lt;span style=&quot;font-size: 16px;&quot;&gt;View User Feedback&lt;/span&gt;" style="rounded=1;whiteSpace=wrap;html=1;" vertex="1" parent="WIyWlLk6GJQsqaUBKTNV-1">
          <mxGeometry x="-1350" y="540" width="120" height="40" as="geometry" />
        </mxCell>
        <mxCell id="iGWFrbJc25Ctp-Jr03vj-126" value="" style="endArrow=classic;html=1;rounded=0;exitX=0.5;exitY=1;exitDx=0;exitDy=0;entryX=0.5;entryY=0;entryDx=0;entryDy=0;" edge="1" parent="WIyWlLk6GJQsqaUBKTNV-1" source="iGWFrbJc25Ctp-Jr03vj-116" target="iGWFrbJc25Ctp-Jr03vj-125">
          <mxGeometry width="50" height="50" relative="1" as="geometry">
            <mxPoint x="-1020" y="440" as="sourcePoint" />
            <mxPoint x="-970" y="390" as="targetPoint" />
            <Array as="points">
              <mxPoint x="-1080" y="520" />
              <mxPoint x="-1180" y="520" />
              <mxPoint x="-1290" y="520" />
            </Array>
          </mxGeometry>
        </mxCell>
        <mxCell id="iGWFrbJc25Ctp-Jr03vj-128" value="&lt;span style=&quot;font-size: 16px;&quot;&gt;Manage Pet Status&lt;/span&gt;" style="rounded=1;whiteSpace=wrap;html=1;" vertex="1" parent="WIyWlLk6GJQsqaUBKTNV-1">
          <mxGeometry x="-1139" y="540" width="120" height="40" as="geometry" />
        </mxCell>
        <mxCell id="iGWFrbJc25Ctp-Jr03vj-129" value="" style="endArrow=classic;html=1;rounded=0;exitX=0.5;exitY=1;exitDx=0;exitDy=0;entryX=0.5;entryY=0;entryDx=0;entryDy=0;" edge="1" parent="WIyWlLk6GJQsqaUBKTNV-1" source="iGWFrbJc25Ctp-Jr03vj-128" target="iGWFrbJc25Ctp-Jr03vj-130">
          <mxGeometry width="50" height="50" relative="1" as="geometry">
            <mxPoint x="-1062.0000000000005" y="580" as="sourcePoint" />
            <mxPoint x="-1056" y="650" as="targetPoint" />
          </mxGeometry>
        </mxCell>
        <mxCell id="iGWFrbJc25Ctp-Jr03vj-130" value="&lt;span style=&quot;font-size: 16px;&quot;&gt;Add Vaccine Status?&lt;/span&gt;" style="rhombus;whiteSpace=wrap;html=1;" vertex="1" parent="WIyWlLk6GJQsqaUBKTNV-1">
          <mxGeometry x="-1140" y="650" width="120" height="80" as="geometry" />
        </mxCell>
        <mxCell id="iGWFrbJc25Ctp-Jr03vj-131" value="&lt;font style=&quot;font-size: 16px;&quot;&gt;View Pet Status&lt;/font&gt;" style="rounded=1;whiteSpace=wrap;html=1;" vertex="1" parent="WIyWlLk6GJQsqaUBKTNV-1">
          <mxGeometry x="-1140" y="787" width="120" height="40" as="geometry" />
        </mxCell>
        <mxCell id="iGWFrbJc25Ctp-Jr03vj-132" value="" style="endArrow=classic;html=1;rounded=0;exitX=0.5;exitY=1;exitDx=0;exitDy=0;entryX=0.5;entryY=0;entryDx=0;entryDy=0;" edge="1" parent="WIyWlLk6GJQsqaUBKTNV-1" source="iGWFrbJc25Ctp-Jr03vj-130" target="iGWFrbJc25Ctp-Jr03vj-131">
          <mxGeometry width="50" height="50" relative="1" as="geometry">
            <mxPoint x="-1249" y="720" as="sourcePoint" />
            <mxPoint x="-1199" y="670" as="targetPoint" />
          </mxGeometry>
        </mxCell>
        <mxCell id="iGWFrbJc25Ctp-Jr03vj-133" value="&lt;font style=&quot;font-size: 16px;&quot;&gt;No&lt;/font&gt;" style="edgeLabel;html=1;align=center;verticalAlign=middle;resizable=0;points=[];" vertex="1" connectable="0" parent="iGWFrbJc25Ctp-Jr03vj-132">
          <mxGeometry x="-0.193" y="-1" relative="1" as="geometry">
            <mxPoint y="-1" as="offset" />
          </mxGeometry>
        </mxCell>
        <mxCell id="iGWFrbJc25Ctp-Jr03vj-137" value="" style="endArrow=classic;html=1;rounded=0;exitX=0.5;exitY=1;exitDx=0;exitDy=0;entryX=0;entryY=0.5;entryDx=0;entryDy=0;" edge="1" parent="WIyWlLk6GJQsqaUBKTNV-1" source="iGWFrbJc25Ctp-Jr03vj-131" target="iGWFrbJc25Ctp-Jr03vj-60">
          <mxGeometry width="50" height="50" relative="1" as="geometry">
            <mxPoint x="-1190" y="920" as="sourcePoint" />
            <mxPoint x="192.13330078125" y="1040" as="targetPoint" />
            <Array as="points">
              <mxPoint x="-1080" y="970" />
              <mxPoint x="-530" y="970" />
            </Array>
          </mxGeometry>
        </mxCell>
        <mxCell id="iGWFrbJc25Ctp-Jr03vj-139" value="" style="endArrow=classic;html=1;rounded=0;entryX=0;entryY=0.5;entryDx=0;entryDy=0;exitX=0.5;exitY=1;exitDx=0;exitDy=0;" edge="1" parent="WIyWlLk6GJQsqaUBKTNV-1" source="iGWFrbJc25Ctp-Jr03vj-125" target="iGWFrbJc25Ctp-Jr03vj-60">
          <mxGeometry width="50" height="50" relative="1" as="geometry">
            <mxPoint x="-460" y="830" as="sourcePoint" />
            <mxPoint x="-410" y="780" as="targetPoint" />
            <Array as="points">
              <mxPoint x="-1290" y="970" />
              <mxPoint x="-1090" y="970" />
            </Array>
          </mxGeometry>
        </mxCell>
        <mxCell id="iGWFrbJc25Ctp-Jr03vj-140" value="" style="endArrow=classic;html=1;rounded=0;exitX=0.5;exitY=1;exitDx=0;exitDy=0;entryX=0;entryY=0.5;entryDx=0;entryDy=0;" edge="1" parent="WIyWlLk6GJQsqaUBKTNV-1" source="iGWFrbJc25Ctp-Jr03vj-121" target="iGWFrbJc25Ctp-Jr03vj-60">
          <mxGeometry width="50" height="50" relative="1" as="geometry">
            <mxPoint x="-1160" y="900" as="sourcePoint" />
            <mxPoint x="-1110" y="850" as="targetPoint" />
            <Array as="points">
              <mxPoint x="-1470" y="970" />
              <mxPoint x="-1300" y="970" />
            </Array>
          </mxGeometry>
        </mxCell>
        <mxCell id="iGWFrbJc25Ctp-Jr03vj-141" value="" style="endArrow=classic;html=1;rounded=0;exitX=1;exitY=0.5;exitDx=0;exitDy=0;" edge="1" parent="WIyWlLk6GJQsqaUBKTNV-1" source="iGWFrbJc25Ctp-Jr03vj-130">
          <mxGeometry width="50" height="50" relative="1" as="geometry">
            <mxPoint x="-749" y="900" as="sourcePoint" />
            <mxPoint x="-939" y="690" as="targetPoint" />
          </mxGeometry>
        </mxCell>
        <mxCell id="iGWFrbJc25Ctp-Jr03vj-142" value="&lt;font style=&quot;font-size: 16px;&quot;&gt;Yes&lt;/font&gt;" style="edgeLabel;html=1;align=center;verticalAlign=middle;resizable=0;points=[];" vertex="1" connectable="0" parent="iGWFrbJc25Ctp-Jr03vj-141">
          <mxGeometry x="-0.2163" y="-2" relative="1" as="geometry">
            <mxPoint as="offset" />
          </mxGeometry>
        </mxCell>
        <mxCell id="iGWFrbJc25Ctp-Jr03vj-143" value="&lt;font style=&quot;font-size: 16px;&quot;&gt;Add Vaccine Status&lt;/font&gt;" style="rounded=1;whiteSpace=wrap;html=1;" vertex="1" parent="WIyWlLk6GJQsqaUBKTNV-1">
          <mxGeometry x="-939" y="670" width="120" height="40" as="geometry" />
        </mxCell>
        <mxCell id="iGWFrbJc25Ctp-Jr03vj-144" value="" style="endArrow=classic;html=1;rounded=0;exitX=0.5;exitY=1;exitDx=0;exitDy=0;entryX=1;entryY=0.5;entryDx=0;entryDy=0;" edge="1" parent="WIyWlLk6GJQsqaUBKTNV-1" source="iGWFrbJc25Ctp-Jr03vj-143" target="iGWFrbJc25Ctp-Jr03vj-131">
          <mxGeometry width="50" height="50" relative="1" as="geometry">
            <mxPoint x="-749" y="890" as="sourcePoint" />
            <mxPoint x="-699" y="840" as="targetPoint" />
            <Array as="points">
              <mxPoint x="-879" y="807" />
            </Array>
          </mxGeometry>
        </mxCell>
        <mxCell id="iGWFrbJc25Ctp-Jr03vj-146" value="" style="endArrow=classic;html=1;rounded=0;exitX=0.5;exitY=1;exitDx=0;exitDy=0;" edge="1" parent="WIyWlLk6GJQsqaUBKTNV-1" source="iGWFrbJc25Ctp-Jr03vj-116" target="iGWFrbJc25Ctp-Jr03vj-128">
          <mxGeometry width="50" height="50" relative="1" as="geometry">
            <mxPoint x="-960" y="740" as="sourcePoint" />
            <mxPoint x="-910" y="690" as="targetPoint" />
          </mxGeometry>
        </mxCell>
        <mxCell id="iGWFrbJc25Ctp-Jr03vj-147" value="&lt;span style=&quot;font-size: 16px;&quot;&gt;Profile Page&lt;/span&gt;" style="rounded=1;whiteSpace=wrap;html=1;" vertex="1" parent="WIyWlLk6GJQsqaUBKTNV-1">
          <mxGeometry x="-780" y="540" width="120" height="40" as="geometry" />
        </mxCell>
        <mxCell id="iGWFrbJc25Ctp-Jr03vj-148" value="&lt;font style=&quot;font-size: 16px;&quot;&gt;View Profile&lt;/font&gt;" style="rounded=1;whiteSpace=wrap;html=1;" vertex="1" parent="WIyWlLk6GJQsqaUBKTNV-1">
          <mxGeometry x="-780" y="610" width="120" height="40" as="geometry" />
        </mxCell>
        <mxCell id="iGWFrbJc25Ctp-Jr03vj-149" value="&lt;font style=&quot;font-size: 16px;&quot;&gt;Edit Profile?&lt;/font&gt;" style="rhombus;whiteSpace=wrap;html=1;" vertex="1" parent="WIyWlLk6GJQsqaUBKTNV-1">
          <mxGeometry x="-770" y="680" width="100" height="90" as="geometry" />
        </mxCell>
        <mxCell id="iGWFrbJc25Ctp-Jr03vj-150" value="&lt;span style=&quot;font-size: 16px;&quot;&gt;Update Profile&lt;/span&gt;" style="rounded=1;whiteSpace=wrap;html=1;" vertex="1" parent="WIyWlLk6GJQsqaUBKTNV-1">
          <mxGeometry x="-780" y="816" width="120" height="40" as="geometry" />
        </mxCell>
        <mxCell id="iGWFrbJc25Ctp-Jr03vj-151" value="" style="endArrow=classic;html=1;rounded=0;exitX=0.5;exitY=1;exitDx=0;exitDy=0;entryX=0.5;entryY=0;entryDx=0;entryDy=0;" edge="1" parent="WIyWlLk6GJQsqaUBKTNV-1" source="iGWFrbJc25Ctp-Jr03vj-116" target="iGWFrbJc25Ctp-Jr03vj-147">
          <mxGeometry width="50" height="50" relative="1" as="geometry">
            <mxPoint x="-1090" y="750" as="sourcePoint" />
            <mxPoint x="-1040" y="700" as="targetPoint" />
            <Array as="points">
              <mxPoint x="-1080" y="520" />
              <mxPoint x="-720" y="520" />
            </Array>
          </mxGeometry>
        </mxCell>
        <mxCell id="iGWFrbJc25Ctp-Jr03vj-154" value="" style="endArrow=classic;html=1;rounded=0;exitX=0.5;exitY=1;exitDx=0;exitDy=0;" edge="1" parent="WIyWlLk6GJQsqaUBKTNV-1" source="iGWFrbJc25Ctp-Jr03vj-147" target="iGWFrbJc25Ctp-Jr03vj-148">
          <mxGeometry width="50" height="50" relative="1" as="geometry">
            <mxPoint x="-1090" y="750" as="sourcePoint" />
            <mxPoint x="-1040" y="700" as="targetPoint" />
          </mxGeometry>
        </mxCell>
        <mxCell id="iGWFrbJc25Ctp-Jr03vj-155" value="" style="endArrow=classic;html=1;rounded=0;exitX=0.5;exitY=1;exitDx=0;exitDy=0;" edge="1" parent="WIyWlLk6GJQsqaUBKTNV-1" source="iGWFrbJc25Ctp-Jr03vj-148" target="iGWFrbJc25Ctp-Jr03vj-149">
          <mxGeometry width="50" height="50" relative="1" as="geometry">
            <mxPoint x="-630" y="730" as="sourcePoint" />
            <mxPoint x="-580" y="680" as="targetPoint" />
          </mxGeometry>
        </mxCell>
        <mxCell id="iGWFrbJc25Ctp-Jr03vj-156" value="" style="endArrow=classic;html=1;rounded=0;entryX=0;entryY=0.5;entryDx=0;entryDy=0;exitX=1;exitY=0.5;exitDx=0;exitDy=0;" edge="1" parent="WIyWlLk6GJQsqaUBKTNV-1" source="iGWFrbJc25Ctp-Jr03vj-149" target="iGWFrbJc25Ctp-Jr03vj-60">
          <mxGeometry width="50" height="50" relative="1" as="geometry">
            <mxPoint x="-660" y="726" as="sourcePoint" />
            <mxPoint x="-600" y="726" as="targetPoint" />
            <Array as="points">
              <mxPoint x="-520" y="726" />
              <mxPoint x="-520" y="970" />
            </Array>
          </mxGeometry>
        </mxCell>
        <mxCell id="iGWFrbJc25Ctp-Jr03vj-158" value="No" style="edgeLabel;html=1;align=center;verticalAlign=middle;resizable=0;points=[];" vertex="1" connectable="0" parent="iGWFrbJc25Ctp-Jr03vj-156">
          <mxGeometry x="-0.8735" y="-1" relative="1" as="geometry">
            <mxPoint as="offset" />
          </mxGeometry>
        </mxCell>
        <mxCell id="iGWFrbJc25Ctp-Jr03vj-159" value="&lt;font style=&quot;font-size: 16px;&quot;&gt;No&lt;/font&gt;" style="edgeLabel;html=1;align=center;verticalAlign=middle;resizable=0;points=[];" vertex="1" connectable="0" parent="iGWFrbJc25Ctp-Jr03vj-156">
          <mxGeometry x="-0.871" y="-2" relative="1" as="geometry">
            <mxPoint as="offset" />
          </mxGeometry>
        </mxCell>
        <mxCell id="iGWFrbJc25Ctp-Jr03vj-160" value="" style="endArrow=classic;html=1;rounded=0;exitX=0.5;exitY=1;exitDx=0;exitDy=0;entryX=0;entryY=0.5;entryDx=0;entryDy=0;" edge="1" parent="WIyWlLk6GJQsqaUBKTNV-1" source="iGWFrbJc25Ctp-Jr03vj-150" target="iGWFrbJc25Ctp-Jr03vj-60">
          <mxGeometry width="50" height="50" relative="1" as="geometry">
            <mxPoint x="-910" y="880" as="sourcePoint" />
            <mxPoint x="-860" y="830" as="targetPoint" />
            <Array as="points">
              <mxPoint x="-720" y="970" />
            </Array>
          </mxGeometry>
        </mxCell>
        <mxCell id="iGWFrbJc25Ctp-Jr03vj-161" value="" style="endArrow=classic;html=1;rounded=0;exitX=0.5;exitY=1;exitDx=0;exitDy=0;entryX=0.5;entryY=0;entryDx=0;entryDy=0;" edge="1" parent="WIyWlLk6GJQsqaUBKTNV-1" source="iGWFrbJc25Ctp-Jr03vj-149" target="iGWFrbJc25Ctp-Jr03vj-150">
          <mxGeometry width="50" height="50" relative="1" as="geometry">
            <mxPoint x="-1000" y="850" as="sourcePoint" />
            <mxPoint x="-950" y="800" as="targetPoint" />
          </mxGeometry>
        </mxCell>
        <mxCell id="iGWFrbJc25Ctp-Jr03vj-162" value="&lt;font style=&quot;font-size: 16px;&quot;&gt;Yes&lt;/font&gt;" style="edgeLabel;html=1;align=center;verticalAlign=middle;resizable=0;points=[];" vertex="1" connectable="0" parent="iGWFrbJc25Ctp-Jr03vj-161">
          <mxGeometry x="-0.3253" y="-2" relative="1" as="geometry">
            <mxPoint as="offset" />
          </mxGeometry>
        </mxCell>
      </root>
    </mxGraphModel>
  </diagram>
</mxfile>
